<svg xmlns="http://www.w3.org/2000/svg" viewBox="0 0 1600 1000" fill="none" data-koumakan-hall="true">
  <defs>
    <radialGradient id="moonGlow" cx="0" cy="0" r="1" gradientTransform="translate(800 178) rotate(90) scale(170 280)" gradientUnits="userSpaceOnUse">
      <stop stop-color="#ff6172" stop-opacity=".66"/>
      <stop offset=".38" stop-color="#c82348" stop-opacity=".34"/>
      <stop offset="1" stop-color="#08101b" stop-opacity="0"/>
    </radialGradient>
    <linearGradient id="wallWash" x1="800" y1="0" x2="800" y2="1000" gradientUnits="userSpaceOnUse">
      <stop stop-color="#2a0714"/>
      <stop offset=".32" stop-color="#68162f" stop-opacity=".84"/>
      <stop offset=".62" stop-color="#111826" stop-opacity=".7"/>
      <stop offset="1" stop-color="#070d16"/>
    </linearGradient>
    <linearGradient id="floorSheen" x1="800" y1="420" x2="800" y2="1000" gradientUnits="userSpaceOnUse">
      <stop stop-color="#1b2032" stop-opacity=".18"/>
      <stop offset=".48" stop-color="#6f172e" stop-opacity=".18"/>
      <stop offset="1" stop-color="#080d16" stop-opacity=".9"/>
    </linearGradient>
    <linearGradient id="goldLine" x1="0" y1="0" x2="1" y2="1">
      <stop stop-color="#f7d28d" stop-opacity=".64"/>
      <stop offset=".52" stop-color="#d3a35d" stop-opacity=".2"/>
      <stop offset="1" stop-color="#7b4b28" stop-opacity=".08"/>
    </linearGradient>
    <pattern id="damask" width="92" height="92" patternUnits="userSpaceOnUse">
      <path d="M46 8c12 18 12 36 0 54C34 44 34 26 46 8Z" fill="#f7d28d" fill-opacity=".035"/>
      <path d="M46 84c-12-18-12-36 0-54 12 18 12 36 0 54Z" fill="#ef5b72" fill-opacity=".028"/>
    </pattern>
  </defs>

  <rect width="1600" height="1000" fill="#07101c"/>
  <rect width="1600" height="1000" fill="url(#wallWash)"/>
  <rect width="1600" height="1000" fill="url(#damask)" opacity=".82"/>
  <rect x="0" y="386" width="1600" height="614" fill="url(#floorSheen)" data-koumakan-floor="true"/>
  <ellipse cx="800" cy="184" rx="260" ry="220" fill="url(#moonGlow)" data-koumakan-red-moon="true"/>
  <circle cx="800" cy="148" r="58" fill="#f0445f" fill-opacity=".68"/>
  <circle cx="772" cy="128" r="22" fill="#ffd0d0" fill-opacity=".18"/>
  <circle cx="826" cy="162" r="30" fill="#791d34" fill-opacity=".2"/>

  <g data-koumakan-arched-windows="true" opacity=".78">
    <path d="M548 384V190c0-78 52-140 116-140s116 62 116 140v194" fill="#140b16" fill-opacity=".46" stroke="#c58a50" stroke-opacity=".22" stroke-width="4"/>
    <path d="M820 384V190c0-78 52-140 116-140s116 62 116 140v194" fill="#140b16" fill-opacity=".42" stroke="#c58a50" stroke-opacity=".2" stroke-width="4"/>
    <path d="M268 430V218c0-70 45-126 100-126s100 56 100 126v212" fill="#130a15" fill-opacity=".52" stroke="#c58a50" stroke-opacity=".16" stroke-width="3"/>
    <path d="M1132 430V218c0-70 45-126 100-126s100 56 100 126v212" fill="#130a15" fill-opacity=".52" stroke="#c58a50" stroke-opacity=".16" stroke-width="3"/>
    <path d="M604 392V166M724 392V166M664 392V62M876 392V166M996 392V166M936 392V62" stroke="#080b12" stroke-opacity=".68" stroke-width="8"/>
    <path d="M326 436V194M410 436V194M1210 436V194M1294 436V194" stroke="#080b12" stroke-opacity=".7" stroke-width="7"/>
    <path d="M562 256h202M834 256h202M284 282h170M1146 282h170" stroke="#f7d28d" stroke-opacity=".08" stroke-width="3"/>
  </g>

  <g data-koumakan-columns="true" opacity=".86">
    <rect x="492" y="36" width="38" height="544" fill="#050811" fill-opacity=".68"/>
    <rect x="1070" y="36" width="38" height="544" fill="#050811" fill-opacity=".68"/>
    <rect x="186" y="60" width="44" height="620" fill="#050811" fill-opacity=".62"/>
    <rect x="1370" y="60" width="44" height="620" fill="#050811" fill-opacity=".62"/>
    <path d="M466 90h90M1044 90h90M160 124h96M1344 124h96" stroke="url(#goldLine)" stroke-width="7" opacity=".5"/>
    <path d="M460 542h102M1038 542h102M152 650h112M1336 650h112" stroke="url(#goldLine)" stroke-width="9" opacity=".32"/>
  </g>

  <g data-koumakan-floor-perspective="true" opacity=".62">
    <path d="M164 1000 590 410M1436 1000 1010 410" stroke="#f7d28d" stroke-opacity=".07" stroke-width="4"/>
    <path d="M360 1000 670 410M1240 1000 930 410" stroke="#f7d28d" stroke-opacity=".055" stroke-width="3"/>
    <path d="M560 1000 748 410M1040 1000 852 410" stroke="#f7d28d" stroke-opacity=".048" stroke-width="2"/>
    <path d="M130 508h1340M88 642h1424M40 792h1520M0 948h1600" stroke="#f7d28d" stroke-opacity=".055" stroke-width="2"/>
    <path d="M0 420h1600" stroke="#070a10" stroke-opacity=".66" stroke-width="14"/>
  </g>

  <g opacity=".34">
    <path d="M0 0h1600v112H0z" fill="#170812"/>
    <path d="M180 112h1240" stroke="#f7d28d" stroke-opacity=".14" stroke-width="4"/>
    <path d="M232 76c152-42 984-42 1136 0" stroke="#ef5b72" stroke-opacity=".11" stroke-width="18"/>
  </g>
</svg>
